<svg viewBox="0 0 19 30" fill="none" xmlns="http://www.w3.org/2000/svg">
    <path d="M15.0073 30C14.4995 30.0014 13.9963 29.9028 13.5271 29.7101C13.0579 29.5174 12.6318 29.2343 12.2736 28.8772L1.12904 17.8229C0.757847 17.4531 0.466456 17.0123 0.272627 16.5272C0.0787972 16.0421 -0.0134116 15.5229 0.0016205 15.0014C-0.0135986 14.4793 0.0785138 13.9597 0.272343 13.4742C0.466173 12.9886 0.75766 12.5473 1.12904 12.1771L12.2741 1.12277C12.6322 0.765654 13.0581 0.482541 13.5273 0.289819C13.9965 0.0970971 14.4995 -0.00140497 15.0073 1.51392e-05C16.0401 1.51392e-05 17.0107 0.398776 17.7406 1.12277C19.2478 2.61767 19.2478 5.05038 17.7406 6.54528L9.21652 15L17.7406 23.4543C19.2478 24.9492 19.2478 27.3819 17.7406 28.8768C17.3825 29.234 16.9566 29.5172 16.4874 29.71C16.0182 29.9028 15.5152 30.0013 15.0073 30ZM15.0073 1.80436C14.7385 1.80366 14.4722 1.8558 14.2238 1.95777C13.9754 2.05973 13.7499 2.20951 13.5602 2.39844L2.63075 13.4528C2.22553 13.8556 2.25191 14.3928 2.25191 14.9662V15.0343C2.25191 15.6076 2.22553 16.1444 2.63075 16.5468L13.668 27.6011C14.0545 27.9845 14.5148 28.1952 15.061 28.1952C15.6081 28.1952 16.0947 27.9841 16.4813 27.6011C17.2794 26.8095 17.2658 25.5216 16.4676 24.7299L7.29413 15.6378C7.12319 15.4691 7.02683 15.2399 7.02623 15.0007C7.02563 14.7614 7.12085 14.5318 7.29095 14.3622L16.4563 5.27006C16.8394 4.88889 17.0545 4.3726 17.0544 3.83438C17.0543 3.29617 16.839 2.77994 16.4558 2.39889C16.266 2.20978 16.0402 2.05986 15.7916 1.95782C15.5429 1.85577 15.2764 1.80361 15.0073 1.80436Z" fill="#72E2EA"/>
</svg>
